# xmcd
#
# Track frame offsets: 
#        150
#        5883
#        23351
#        40522
#        57353
#        75368
#        87965
#        98582
#        115679
#        131353
#        148271
#        187369
#        206356
#
# Disc length: 3044 seconds
#
# Revision: 1
# Processed by: cddbd v1.5.2PL0 Copyright (c) Steve Scherf et al.
# Submitted via: ExactAudioCopy v0.99pb4
#
DISCID=a00be20d
DTITLE=Darkest Hour - The Human Romance
DYEAR=2011
DGENRE=Metal
TTITLE0=Terra Nocturnus
TTITLE1=The World Engulfed In Flames
TTITLE2=Savor The Kill
TTITLE3=Man and Swine
TTITLE4=Love As A Weapon
TTITLE5=Your Everyday Disaster
TTITLE6=Violent By Nature
TTITLE7=Purgatory
TTITLE8=Severed Into Separates
TTITLE9=Wound
TTITLE10=Terra Solaris
TTITLE11=Beyond The Life You Know
TTITLE12=Hierarchy Of Heathens
EXTD=
EXTT0=
EXTT1=
EXTT2=
EXTT3=
EXTT4=
EXTT5=
EXTT6=
EXTT7=
EXTT8=
EXTT9=
EXTT10=
EXTT11=
EXTT12=
PLAYORDER=
